<svg width="22" height="22" viewBox="0 0 22 22" fill="none" xmlns="http://www.w3.org/2000/svg">
<path d="M17.2831 20.8435C16.3827 21.1095 15.3185 21.2323 14.0701 21.2323H7.93059C6.68222 21.2323 5.61803 21.1095 4.71757 20.8435C4.94269 18.183 7.67478 16.0853 11.0004 16.0853C14.3259 16.0853 17.058 18.183 17.2831 20.8435Z" stroke="#7C7C7C" stroke-width="1.5" stroke-linecap="round" stroke-linejoin="round"/>
<path d="M14.0698 0.767442H7.93023C2.81395 0.767442 0.767442 2.81395 0.767442 7.93023V14.0698C0.767442 17.9377 1.93395 20.0558 4.71721 20.8437C4.94233 18.1833 7.67442 16.0856 11 16.0856C14.3256 16.0856 17.0577 18.1833 17.2828 20.8437C20.066 20.0558 21.2326 17.9377 21.2326 14.0698V7.93023C21.2326 2.81395 19.186 0.767442 14.0698 0.767442ZM11 13.2204C8.97395 13.2204 7.33674 11.573 7.33674 9.54699C7.33674 7.52095 8.97395 5.88372 11 5.88372C13.026 5.88372 14.6633 7.52095 14.6633 9.54699C14.6633 11.573 13.026 13.2204 11 13.2204Z" stroke="#7C7C7C" stroke-width="1.5" stroke-linecap="round" stroke-linejoin="round"/>
<path d="M14.6632 9.54699C14.6632 11.573 13.026 13.2204 10.9999 13.2204C8.97388 13.2204 7.33666 11.573 7.33666 9.54699C7.33666 7.52095 8.97388 5.88372 10.9999 5.88372C13.026 5.88372 14.6632 7.52095 14.6632 9.54699Z" stroke="#7C7C7C" stroke-width="1.5" stroke-linecap="round" stroke-linejoin="round"/>
</svg>
