<svg width="25" height="25" viewBox="0 0 25 25" fill="none" xmlns="http://www.w3.org/2000/svg">
<path d="M19.4939 11.0619V15.7527C19.4939 16.0576 19.4821 16.3508 19.4469 16.6323C19.1772 19.7986 17.3126 21.37 13.8766 21.37H13.4075C13.1143 21.37 12.8328 21.5107 12.6569 21.7453L11.2497 23.6216C10.6281 24.4543 9.6196 24.4543 8.99806 23.6216L7.59079 21.7453C7.43834 21.5459 7.09827 21.37 6.84027 21.37H6.37119C2.63024 21.37 0.753887 20.4436 0.753887 15.7527V11.0619C0.753887 7.62583 2.33706 5.76122 5.49166 5.4915C5.77311 5.45631 6.06629 5.44458 6.37119 5.44458H13.8766C17.6175 5.44458 19.4939 7.32093 19.4939 11.0619Z" stroke="white" stroke-width="1.5" stroke-miterlimit="10" stroke-linecap="round" stroke-linejoin="round"/>
<path d="M24.1852 6.3712V11.062C24.1852 14.5098 22.6021 16.3627 19.4475 16.6324C19.4827 16.351 19.4944 16.0578 19.4944 15.7529V11.062C19.4944 7.32109 17.618 5.44474 13.8771 5.44474H6.37172C6.06682 5.44474 5.77364 5.45648 5.49219 5.49166C5.76191 2.33706 7.62652 0.753887 11.0626 0.753887H18.5679C22.3089 0.753887 24.1852 2.63024 24.1852 6.3712Z" stroke="white" stroke-width="1.5" stroke-miterlimit="10" stroke-linecap="round" stroke-linejoin="round"/>
<path d="M14.2355 13.9467H14.246" stroke="white" stroke-width="2" stroke-linecap="round" stroke-linejoin="round"/>
<path d="M10.1303 13.9467H10.1409" stroke="white" stroke-width="2" stroke-linecap="round" stroke-linejoin="round"/>
<path d="M6.02615 13.9467H6.0367" stroke="white" stroke-width="2" stroke-linecap="round" stroke-linejoin="round"/>
</svg>
