<svg width="22" height="22" viewBox="0 0 22 22" fill="none" xmlns="http://www.w3.org/2000/svg">
<path d="M14.0698 0.767442V11C14.0698 12.1256 13.1488 13.0465 12.0233 13.0465H0.767442V4.86047C0.767442 2.59907 2.59907 0.767442 4.86047 0.767442H14.0698Z" stroke="white" stroke-width="1.5" stroke-linecap="round" stroke-linejoin="round"/>
<path d="M21.2326 13.0465V16.1163C21.2326 17.8149 19.8614 19.186 18.1628 19.186H17.1395C17.1395 18.0605 16.2186 17.1395 15.093 17.1395C13.9674 17.1395 13.0465 18.0605 13.0465 19.186H8.95349C8.95349 18.0605 8.03256 17.1395 6.90698 17.1395C5.7814 17.1395 4.86047 18.0605 4.86047 19.186H3.83721C2.1386 19.186 0.767442 17.8149 0.767442 16.1163V13.0465H12.0233C13.1488 13.0465 14.0698 12.1256 14.0698 11V3.83721H15.9526C16.6893 3.83721 17.3646 4.23629 17.733 4.87071L19.4828 7.93023H18.1628C17.6 7.93023 17.1395 8.3907 17.1395 8.95349V12.0233C17.1395 12.586 17.6 13.0465 18.1628 13.0465H21.2326Z" stroke="white" stroke-width="1.5" stroke-linecap="round" stroke-linejoin="round"/>
<path d="M6.90698 21.2326C8.03723 21.2326 8.95349 20.3163 8.95349 19.186C8.95349 18.0558 8.03723 17.1395 6.90698 17.1395C5.77672 17.1395 4.86047 18.0558 4.86047 19.186C4.86047 20.3163 5.77672 21.2326 6.90698 21.2326Z" stroke="white" stroke-width="1.5" stroke-linecap="round" stroke-linejoin="round"/>
<path d="M15.093 21.2326C16.2233 21.2326 17.1395 20.3163 17.1395 19.186C17.1395 18.0558 16.2233 17.1395 15.093 17.1395C13.9628 17.1395 13.0465 18.0558 13.0465 19.186C13.0465 20.3163 13.9628 21.2326 15.093 21.2326Z" stroke="white" stroke-width="1.5" stroke-linecap="round" stroke-linejoin="round"/>
<path d="M21.2326 11V13.0465H18.1628C17.6 13.0465 17.1395 12.586 17.1395 12.0233V8.95349C17.1395 8.3907 17.6 7.93023 18.1628 7.93023H19.4828L21.2326 11Z" stroke="white" stroke-width="1.5" stroke-linecap="round" stroke-linejoin="round"/>
</svg>
