<svg width="40" height="40" viewBox="0 0 40 40" fill="none" xmlns="http://www.w3.org/2000/svg">
<path d="M20 13.5132V17.3982" stroke="black" stroke-width="1.5" stroke-miterlimit="10" stroke-linecap="round"/>
<path d="M20.0237 8.3335C15.7304 8.3335 12.2537 11.8102 12.2537 16.1035V18.5535C12.2537 19.3468 11.927 20.5368 11.5187 21.2135L10.037 23.6868C9.12704 25.2152 9.75704 26.9185 11.437 27.4785C17.0137 29.3335 23.0454 29.3335 28.622 27.4785C30.197 26.9535 30.8737 25.1102 30.022 23.6868L28.5404 21.2135C28.132 20.5368 27.8054 19.3352 27.8054 18.5535V16.1035C27.7937 11.8335 24.2937 8.3335 20.0237 8.3335Z" stroke="black" stroke-width="1.5" stroke-miterlimit="10" stroke-linecap="round"/>
<path d="M23.8852 27.9565C23.8852 30.0915 22.1352 31.8415 20.0002 31.8415C18.9386 31.8415 17.9586 31.3982 17.2586 30.6982C16.5586 29.9982 16.1152 29.0182 16.1152 27.9565" stroke="black" stroke-width="1.5" stroke-miterlimit="10"/>
<circle cx="26" cy="10" r="4" fill="#FF0000"/>
</svg>
