<svg width="28" height="28" viewBox="0 0 28 28" fill="none" xmlns="http://www.w3.org/2000/svg">
<path fill-rule="evenodd" clip-rule="evenodd" d="M14.0003 4.6665C8.84833 4.6665 4.66699 8.84784 4.66699 13.9998C4.66699 19.1518 8.84833 23.3332 14.0003 23.3332C19.1523 23.3332 23.3337 19.1518 23.3337 13.9998C23.3337 8.84784 19.1523 4.6665 14.0003 4.6665ZM17.7337 14.9332H14.9337V17.7332C14.9337 18.2465 14.5137 18.6665 14.0003 18.6665C13.487 18.6665 13.067 18.2465 13.067 17.7332V14.9332H10.267C9.75366 14.9332 9.33366 14.5132 9.33366 13.9998C9.33366 13.4865 9.75366 13.0665 10.267 13.0665H13.067V10.2665C13.067 9.75317 13.487 9.33317 14.0003 9.33317C14.5137 9.33317 14.9337 9.75317 14.9337 10.2665V13.0665H17.7337C18.247 13.0665 18.667 13.4865 18.667 13.9998C18.667 14.5132 18.247 14.9332 17.7337 14.9332Z" fill="white"/>
</svg>
