<svg width="28" height="28" viewBox="0 0 28 28" fill="none" xmlns="http://www.w3.org/2000/svg">
<path fill-rule="evenodd" clip-rule="evenodd" d="M7.46654 16.8001H20.5332C21.0465 16.8001 21.4665 16.3801 21.4665 15.8668C21.4665 15.3535 21.0465 14.9335 20.5332 14.9335H7.46654C6.9532 14.9335 6.5332 15.3535 6.5332 15.8668C6.5332 16.3801 6.9532 16.8001 7.46654 16.8001ZM7.46654 20.5335H20.5332C21.0465 20.5335 21.4665 20.1135 21.4665 19.6001C21.4665 19.0868 21.0465 18.6668 20.5332 18.6668H7.46654C6.9532 18.6668 6.5332 19.0868 6.5332 19.6001C6.5332 20.1135 6.9532 20.5335 7.46654 20.5335ZM7.46654 13.0668H20.5332C21.0465 13.0668 21.4665 12.6468 21.4665 12.1335C21.4665 11.6201 21.0465 11.2001 20.5332 11.2001H7.46654C6.9532 11.2001 6.5332 11.6201 6.5332 12.1335C6.5332 12.6468 6.9532 13.0668 7.46654 13.0668ZM6.5332 8.40013C6.5332 8.91346 6.9532 9.33346 7.46654 9.33346H20.5332C21.0465 9.33346 21.4665 8.91346 21.4665 8.40013C21.4665 7.8868 21.0465 7.4668 20.5332 7.4668H7.46654C6.9532 7.4668 6.5332 7.8868 6.5332 8.40013Z" fill="#C3CAD9"/>
</svg>
