<svg width="28" height="28" viewBox="0 0 28 28" fill="none" xmlns="http://www.w3.org/2000/svg">
<path fill-rule="evenodd" clip-rule="evenodd" d="M23.3334 11.2115H18.8627L14.7654 5.0795C14.3921 4.52884 13.5801 4.52884 13.2161 5.0795L9.11873 11.2115H4.66673C4.1534 11.2115 3.7334 11.6315 3.7334 12.1448C3.7334 12.2288 3.74273 12.3128 3.77073 12.3968L6.1414 21.0488C6.35607 21.8328 7.07473 22.4115 7.9334 22.4115H20.0667C20.9254 22.4115 21.6441 21.8328 21.8681 21.0488L24.2387 12.3968L24.2667 12.1448C24.2667 11.6315 23.8467 11.2115 23.3334 11.2115ZM13.9907 7.28217L16.6134 11.2115H11.3681L13.9907 7.28217ZM14.0001 18.6782C12.9734 18.6782 12.1334 17.8382 12.1334 16.8115C12.1334 15.7848 12.9734 14.9448 14.0001 14.9448C15.0267 14.9448 15.8667 15.7848 15.8667 16.8115C15.8667 17.8382 15.0267 18.6782 14.0001 18.6782Z" fill="#C3CAD9"/>
</svg>
