<svg width="28" height="28" viewBox="0 0 28 28" fill="none" xmlns="http://www.w3.org/2000/svg">
<path fill-rule="evenodd" clip-rule="evenodd" d="M7.46654 13.9999H10.2665C10.7799 13.9999 11.1999 13.5799 11.1999 13.0666V9.33324C11.1999 8.8199 10.7799 8.3999 10.2665 8.3999H7.46654C6.9532 8.3999 6.5332 8.8199 6.5332 9.33324V13.0666C6.5332 13.5799 6.9532 13.9999 7.46654 13.9999ZM7.46654 20.5332H10.2665C10.7799 20.5332 11.1999 20.1132 11.1999 19.5999V15.8666C11.1999 15.3532 10.7799 14.9332 10.2665 14.9332H7.46654C6.9532 14.9332 6.5332 15.3532 6.5332 15.8666V19.5999C6.5332 20.1132 6.9532 20.5332 7.46654 20.5332ZM13.0665 20.5332H15.8665C16.3799 20.5332 16.7999 20.1132 16.7999 19.5999V15.8666C16.7999 15.3532 16.3799 14.9332 15.8665 14.9332H13.0665C12.5532 14.9332 12.1332 15.3532 12.1332 15.8666V19.5999C12.1332 20.1132 12.5532 20.5332 13.0665 20.5332ZM18.6665 20.5332H21.4665C21.9799 20.5332 22.3999 20.1132 22.3999 19.5999V15.8666C22.3999 15.3532 21.9799 14.9332 21.4665 14.9332H18.6665C18.1532 14.9332 17.7332 15.3532 17.7332 15.8666V19.5999C17.7332 20.1132 18.1532 20.5332 18.6665 20.5332ZM13.0665 13.9999H15.8665C16.3799 13.9999 16.7999 13.5799 16.7999 13.0666V9.33324C16.7999 8.8199 16.3799 8.3999 15.8665 8.3999H13.0665C12.5532 8.3999 12.1332 8.8199 12.1332 9.33324V13.0666C12.1332 13.5799 12.5532 13.9999 13.0665 13.9999ZM17.7332 9.33324V13.0666C17.7332 13.5799 18.1532 13.9999 18.6665 13.9999H21.4665C21.9799 13.9999 22.3999 13.5799 22.3999 13.0666V9.33324C22.3999 8.8199 21.9799 8.3999 21.4665 8.3999H18.6665C18.1532 8.3999 17.7332 8.8199 17.7332 9.33324Z" fill="#C3CAD9"/>
</svg>
