<svg width="42" height="43" viewBox="0 0 42 43" fill="none" xmlns="http://www.w3.org/2000/svg">
<rect width="42" height="43" rx="5" fill="#171717"/>
<rect width="42" height="43" rx="5" fill="black" fill-opacity="0.2"/>
<path fill-rule="evenodd" clip-rule="evenodd" d="M12.263 12.6038C14.3255 13.2324 15.221 12.9986 17.2503 14.9927C17.892 15.5987 18.4116 16.322 18.7812 17.1235C19.3194 18.2264 19.2642 18.9455 19.637 19.9248C23.2898 19.9844 22.284 20.28 22.7251 18.6014C22.8537 18.1239 23.028 17.66 23.2457 17.2161C24.0086 15.618 25.2727 14.3129 26.8456 13.4993C28.0103 12.8994 28.5418 12.9788 29.7462 12.6038L29.8058 9.79579C25.8552 10.12 23.6295 11.781 21.459 14.5559L21.0179 15.0434C19.9657 14 19.3988 12.7648 17.5217 11.5494C15.9397 10.5347 14.1271 9.93605 12.252 9.80903L12.263 12.6038ZM17.4511 24.9563L17.4709 22.1262C15.1262 21.7402 13.6836 21.0233 12.4748 19.7572C10.8844 18.0808 10.8138 17.4874 10.1168 14.8008H7.37939C7.0816 16.7 8.80875 20.2535 10.4874 21.7468C10.9881 22.188 11.1888 22.4814 11.8307 22.9313C12.3333 23.2866 12.8629 23.6023 13.4145 23.8754C14.6695 24.5131 16.045 24.8784 17.4511 24.9474V24.9563ZM24.6023 24.9563C26.764 24.9232 29.2345 23.8534 30.8668 22.4681C32.916 20.7454 34.8372 17.4367 34.7049 14.8581L31.941 14.8206C31.5484 16.1816 31.5859 16.8896 30.8932 18.0742C30.3697 18.99 29.6782 19.7989 28.8551 20.4586C26.0405 22.7372 24.5957 21.3233 24.556 22.7108C24.5343 23.4537 24.5498 24.1972 24.6023 24.9386V24.9563ZM17.4467 19.9491C16.9415 17.258 15.1747 15.1912 12.3336 14.8096C12.3446 17.2139 15.0137 19.9337 17.4467 19.9314V19.9491ZM24.6177 20.0042C26.1486 19.7219 27.3066 19.0866 28.0941 18.3058C28.7315 17.6727 29.6999 16.1595 29.722 14.803C27.0265 15.2088 24.9817 17.1985 24.6177 19.9866V20.0042ZM20.9429 5.15479L19.1032 6.96354L20.9429 8.962L22.959 7.05839L20.9429 5.15479ZM10.1344 12.6214L5.25741 12.6766C4.7611 14.15 5.57063 17.633 6.09782 18.9388C8.30362 24.3916 13.5777 27.5415 19.5929 27.1003L19.6106 22.0975H22.4185L22.4472 27.1003C26.2103 27.4334 30.6087 25.9974 33.0483 23.3747C35.8541 20.3726 36.8136 17.997 36.8974 12.6744H31.9697L31.9278 7.64955C28.3676 7.64955 25.9236 8.00027 23.0781 9.99431C22.1958 10.6075 21.6928 11.1237 21.0201 11.684C18.2672 9.05685 15.5431 7.60322 10.1278 7.64734L10.1344 12.6214Z" fill="white"/>
<path fill-rule="evenodd" clip-rule="evenodd" d="M32.0843 32.5048L30.8976 30.5306H29.133L31.2593 34.0599C31.4557 33.6849 31.7865 33.0628 32.0865 32.5026M36.3746 30.5284H34.7401L32.8211 33.7224L31.9101 35.1385L31.9233 35.1605V37.7259H33.5732V35.176L36.3746 30.5284ZM26.4088 37.845C28.4624 37.845 29.4572 36.8171 29.4572 35.6172C29.4572 32.9702 25.2794 33.8922 25.2794 32.5665C25.2794 32.1121 25.6588 31.7438 26.6448 31.7438C27.3441 31.7581 28.0279 31.9526 28.63 32.3084L29.144 31.0445C28.3853 30.6106 27.523 30.391 26.6492 30.4093C24.6044 30.4093 23.6184 31.4261 23.6184 32.6481C23.6184 35.3194 27.7984 34.3951 27.7984 35.7363C27.7984 36.1774 27.397 36.5039 26.411 36.5039C25.5635 36.4979 24.7374 36.2374 24.0398 35.7561L23.4751 37.0068C24.1192 37.5053 25.2684 37.845 26.4088 37.845ZM19.9568 30.5306H16.8466V33.3055H18.5076V31.8871H19.8664C20.881 31.8871 21.395 32.3482 21.395 33.14C21.395 33.9319 20.881 34.3819 19.8664 34.3819H16.8466V37.7193H18.5076V35.7341H19.9568C21.8781 35.7341 23.078 34.737 23.078 33.1356C23.078 31.5342 21.8825 30.5306 19.9568 30.5306ZM13.7938 37.7193H15.457V30.5306H13.7938V37.7193ZM7.2911 36.3561V31.8982H8.8109C10.2381 31.8982 11.1733 32.7496 11.1733 34.126C11.1733 35.5025 10.2381 36.3561 8.8109 36.3561H7.2911ZM5.62793 37.7193H8.89472C11.2461 37.7193 12.8652 36.3032 12.8652 34.126C12.8652 31.9489 11.2527 30.5306 8.89472 30.5306H5.62793V37.7193Z" fill="white"/>
</svg>
