<svg width="28" height="28" viewBox="0 0 28 28" fill="none" xmlns="http://www.w3.org/2000/svg">
<path fill-rule="evenodd" clip-rule="evenodd" d="M8.40013 20.5334C8.40013 21.5601 9.24013 22.4001 10.2668 22.4001H17.7335C18.7601 22.4001 19.6001 21.5601 19.6001 20.5334V11.2001C19.6001 10.1734 18.7601 9.33343 17.7335 9.33343H10.2668C9.24013 9.33343 8.40013 10.1734 8.40013 11.2001V20.5334ZM19.6001 6.53343H17.2668L16.6041 5.87076C16.4361 5.70276 16.1935 5.6001 15.9508 5.6001H12.0495C11.8068 5.6001 11.5641 5.70276 11.3961 5.87076L10.7335 6.53343H8.40013C7.8868 6.53343 7.4668 6.95343 7.4668 7.46676C7.4668 7.9801 7.8868 8.4001 8.40013 8.4001H19.6001C20.1135 8.4001 20.5335 7.9801 20.5335 7.46676C20.5335 6.95343 20.1135 6.53343 19.6001 6.53343Z" fill="#C3CAD9"/>
</svg>
