<svg width="24" height="23" viewBox="0 0 24 23" fill="none" xmlns="http://www.w3.org/2000/svg">
<path d="M18.2249 12.5506C17.7946 12.9707 17.5488 13.5751 17.6102 14.2205C17.7024 15.3269 18.7166 16.1362 19.823 16.1362H21.7695V17.3553C21.7695 19.4759 20.0382 21.2072 17.9176 21.2072H7.57065C8.42094 20.4594 8.9639 19.3632 8.9639 18.1339C8.9639 15.8699 7.13014 14.0361 4.86612 14.0361C3.90314 14.0361 3.01187 14.3742 2.305 14.9376V10.4608C2.305 8.3402 4.03631 6.60887 6.15691 6.60887H17.9176C20.0382 6.60887 21.7695 8.3402 21.7695 10.4608V11.936H19.7001C19.1264 11.936 18.6039 12.1614 18.2249 12.5506Z" stroke="white" stroke-width="1.5" stroke-linecap="round" stroke-linejoin="round"/>
<path d="M2.305 10.4609V6.70121C2.305 5.48212 3.05284 4.39617 4.18998 3.9659L12.3241 0.892564C13.5944 0.421319 14.9569 1.35359 14.9569 2.71611V6.60899" stroke="white" stroke-width="1.5" stroke-linecap="round" stroke-linejoin="round"/>
<path d="M22.8542 12.9811V15.0915C22.8542 15.6549 22.4034 16.1159 21.8297 16.1364H19.8218C18.7154 16.1364 17.7012 15.3271 17.609 14.2207C17.5475 13.5753 17.7934 12.9709 18.2237 12.5508C18.6027 12.1615 19.1252 11.9362 19.6989 11.9362H21.8297C22.4034 11.9567 22.8542 12.4176 22.8542 12.9811Z" stroke="white" stroke-width="1.5" stroke-linecap="round" stroke-linejoin="round"/>
<path d="M6.91501 10.9628H14.0861" stroke="white" stroke-width="1.5" stroke-linecap="round" stroke-linejoin="round"/>
<path d="M8.9639 18.1339C8.9639 19.3632 8.42094 20.4594 7.57065 21.2072C6.84329 21.8424 5.90081 22.2317 4.86612 22.2317C2.60209 22.2317 0.768334 20.3979 0.768334 18.1339C0.768334 16.8431 1.36251 15.6855 2.305 14.9376C3.01187 14.3742 3.90314 14.0361 4.86612 14.0361C7.13014 14.0361 8.9639 15.8699 8.9639 18.1339Z" stroke="white" stroke-width="1.5" stroke-miterlimit="10" stroke-linecap="round" stroke-linejoin="round"/>
<path d="M5.12223 16.8533V18.39L3.84167 19.1583" stroke="white" stroke-width="1.5" stroke-miterlimit="10" stroke-linecap="round" stroke-linejoin="round"/>
</svg>
