<svg width="17" height="10" viewBox="0 0 17 10" fill="none" xmlns="http://www.w3.org/2000/svg">
<path d="M16.3049 1.30439H0.652196C0.295662 1.30439 0 1.00873 0 0.652196C0 0.295662 0.295662 0 0.652196 0H16.3049C16.6614 0 16.9571 0.295662 16.9571 0.652196C16.9571 1.00873 16.6614 1.30439 16.3049 1.30439Z" fill="white"/>
<path d="M13.6961 5.6522H3.26098C2.90445 5.6522 2.60878 5.35653 2.60878 5C2.60878 4.64347 2.90445 4.3478 3.26098 4.3478H13.6961C14.0527 4.3478 14.3483 4.64347 14.3483 5C14.3483 5.35653 14.0527 5.6522 13.6961 5.6522Z" fill="white"/>
<path d="M10.2174 10H6.73902C6.38249 10 6.08682 9.70434 6.08682 9.3478C6.08682 8.99127 6.38249 8.69561 6.73902 8.69561H10.2174C10.5739 8.69561 10.8696 8.99127 10.8696 9.3478C10.8696 9.70434 10.5739 10 10.2174 10Z" fill="white"/>
</svg>
