<svg width="15" height="15" viewBox="0 0 15 15" fill="none" xmlns="http://www.w3.org/2000/svg">
<path d="M4.36106 9.76712C4.2285 9.76712 4.09594 9.71828 3.99129 9.61363C3.78897 9.41131 3.78897 9.07643 3.99129 8.87411L6.22383 6.64157C6.33545 6.52995 6.48196 6.47413 6.64243 6.48809C6.79591 6.50204 6.93545 6.58576 7.02614 6.71832L7.7866 7.86249L10.2633 5.38577C10.4656 5.18345 10.8005 5.18345 11.0028 5.38577C11.2052 5.5881 11.2052 5.92298 11.0028 6.1253L8.07264 9.0555C7.96102 9.16713 7.81451 9.22294 7.65404 9.20899C7.50056 9.19503 7.36102 9.11131 7.27033 8.97876L6.50987 7.83458L4.73082 9.61363C4.62617 9.71828 4.49361 9.76712 4.36106 9.76712Z" fill="#037400"/>
<path d="M10.6401 7.67433C10.3541 7.67433 10.1168 7.43712 10.1168 7.15108V6.279H9.24476C8.95872 6.279 8.72151 6.04179 8.72151 5.75575C8.72151 5.46971 8.95872 5.2325 9.24476 5.2325H10.6401C10.9261 5.2325 11.1633 5.46971 11.1633 5.75575V7.15108C11.1633 7.43712 10.9261 7.67433 10.6401 7.67433Z" fill="#037400"/>
<path d="M9.59291 14.9998H5.40692C1.61859 14.9998 0 13.3812 0 9.59291V5.40692C0 1.61859 1.61859 0 5.40692 0H9.59291C13.3812 0 14.9998 1.61859 14.9998 5.40692V9.59291C14.9998 13.3812 13.3812 14.9998 9.59291 14.9998ZM5.40692 1.0465C2.19067 1.0465 1.0465 2.19067 1.0465 5.40692V9.59291C1.0465 12.8092 2.19067 13.9533 5.40692 13.9533H9.59291C12.8092 13.9533 13.9533 12.8092 13.9533 9.59291V5.40692C13.9533 2.19067 12.8092 1.0465 9.59291 1.0465H5.40692Z" fill="#037400"/>
</svg>
