<svg width="28" height="28" viewBox="0 0 28 28" fill="none" xmlns="http://www.w3.org/2000/svg">
<path fill-rule="evenodd" clip-rule="evenodd" d="M17.2669 15.8673H16.5295L16.2682 15.6153C17.3882 14.3087 17.9669 12.526 17.6495 10.6313C17.2109 8.03668 15.0455 5.96468 12.4322 5.64735C8.48419 5.16201 5.16153 8.48468 5.64686 12.4327C5.96419 15.046 8.03619 17.2113 10.6309 17.65C12.5255 17.9673 14.3082 17.3887 15.6149 16.2687L15.8669 16.53V17.2673L19.8335 21.234C20.2162 21.6167 20.8415 21.6167 21.2242 21.234C21.6069 20.8513 21.6069 20.226 21.2242 19.8433L17.2669 15.8673ZM11.6669 15.8673C9.34286 15.8673 7.46686 13.9913 7.46686 11.6673C7.46686 9.34335 9.34286 7.46735 11.6669 7.46735C13.9909 7.46735 15.8669 9.34335 15.8669 11.6673C15.8669 13.9913 13.9909 15.8673 11.6669 15.8673Z" fill="#C3CAD9"/>
</svg>
