<svg width="28" height="28" viewBox="0 0 28 28" fill="none" xmlns="http://www.w3.org/2000/svg">
<path fill-rule="evenodd" clip-rule="evenodd" d="M13.0663 19.5999H14.9329C15.4463 19.5999 15.8663 19.1799 15.8663 18.6666C15.8663 18.1532 15.4463 17.7332 14.9329 17.7332H13.0663C12.5529 17.7332 12.1329 18.1532 12.1329 18.6666C12.1329 19.1799 12.5529 19.5999 13.0663 19.5999ZM5.59961 9.33324C5.59961 9.84657 6.01961 10.2666 6.53294 10.2666H21.4663C21.9796 10.2666 22.3996 9.84657 22.3996 9.33324C22.3996 8.8199 21.9796 8.3999 21.4663 8.3999H6.53294C6.01961 8.3999 5.59961 8.8199 5.59961 9.33324ZM9.33294 14.9332H18.6663C19.1796 14.9332 19.5996 14.5132 19.5996 13.9999C19.5996 13.4866 19.1796 13.0666 18.6663 13.0666H9.33294C8.81961 13.0666 8.39961 13.4866 8.39961 13.9999C8.39961 14.5132 8.81961 14.9332 9.33294 14.9332Z" fill="#C3CAD9"/>
</svg>
