<svg width="28" height="28" viewBox="0 0 28 28" fill="none" xmlns="http://www.w3.org/2000/svg">
<path fill-rule="evenodd" clip-rule="evenodd" d="M14.0003 4.6665C8.84833 4.6665 4.66699 8.84784 4.66699 13.9998C4.66699 19.1518 8.84833 23.3332 14.0003 23.3332C19.1523 23.3332 23.3337 19.1518 23.3337 13.9998C23.3337 8.84784 19.1523 4.6665 14.0003 4.6665ZM11.471 18.0038L8.12033 14.6532C7.94556 14.4788 7.84734 14.2421 7.84734 13.9952C7.84734 13.7483 7.94556 13.5115 8.12033 13.3372C8.48433 12.9732 9.07233 12.9732 9.43633 13.3372L12.1337 16.0252L18.555 9.60384C18.919 9.23984 19.507 9.23984 19.871 9.60384C20.235 9.96784 20.235 10.5558 19.871 10.9198L12.787 18.0038C12.4323 18.3678 11.835 18.3678 11.471 18.0038Z" fill="#C3CAD9"/>
</svg>
