<svg width="40" height="40" viewBox="0 0 40 40" fill="none" xmlns="http://www.w3.org/2000/svg">
<path d="M26.9764 18.5883V23.255C26.9764 23.5583 26.9647 23.85 26.9297 24.13C26.6613 27.28 24.8063 28.8433 21.388 28.8433H20.9214C20.6297 28.8433 20.3497 28.9833 20.1747 29.2167L18.7747 31.0833C18.1564 31.9117 17.153 31.9117 16.5347 31.0833L15.1347 29.2167C14.983 29.0183 14.6447 28.8433 14.388 28.8433H13.9214C10.1997 28.8433 8.33301 27.9217 8.33301 23.255V18.5883C8.33301 15.17 9.90802 13.315 13.0464 13.0467C13.3264 13.0117 13.618 13 13.9214 13H21.388C25.1097 13 26.9764 14.8667 26.9764 18.5883Z" stroke="#7C7C7C" stroke-width="1.5" stroke-miterlimit="10" stroke-linecap="round" stroke-linejoin="round"/>
<path d="M31.6435 13.9218V18.5885C31.6435 22.0185 30.0685 23.8618 26.9302 24.1302C26.9652 23.8502 26.9769 23.5585 26.9769 23.2552V18.5885C26.9769 14.8668 25.1102 13.0002 21.3885 13.0002H13.9219C13.6185 13.0002 13.3269 13.0118 13.0469 13.0468C13.3152 9.90851 15.1702 8.3335 18.5885 8.3335H26.0552C29.7769 8.3335 31.6435 10.2002 31.6435 13.9218Z" stroke="#7C7C7C" stroke-width="1.5" stroke-miterlimit="10" stroke-linecap="round" stroke-linejoin="round"/>
<path d="M21.7451 21.4583H21.7556" stroke="#7C7C7C" stroke-width="2" stroke-linecap="round" stroke-linejoin="round"/>
<path d="M17.6611 21.4583H17.6716" stroke="#7C7C7C" stroke-width="2" stroke-linecap="round" stroke-linejoin="round"/>
<path d="M13.5781 21.4583H13.5886" stroke="#7C7C7C" stroke-width="2" stroke-linecap="round" stroke-linejoin="round"/>
</svg>
